<svg width="640" height="480" viewBox="0 0 640 480" fill="none" xmlns="http://www.w3.org/2000/svg">
  <defs>
    <linearGradient id="grad" x1="0" y1="0" x2="1" y2="1">
      <stop offset="0%" stop-color="#1d9bf0" />
      <stop offset="100%" stop-color="#5f4bff" />
    </linearGradient>
    <linearGradient id="gradSoft" x1="0" y1="0" x2="0" y2="1">
      <stop offset="0%" stop-color="#ffffff" stop-opacity="0.9" />
      <stop offset="100%" stop-color="#ffffff" stop-opacity="0.3" />
    </linearGradient>
  </defs>
  <rect width="640" height="480" rx="48" fill="#0f172a" />
  <rect x="48" y="64" width="544" height="352" rx="32" fill="#111c37" stroke="url(#grad)" stroke-width="4" />
  <rect x="96" y="112" width="200" height="256" rx="24" fill="#1b2745" />
  <rect x="336" y="112" width="208" height="160" rx="24" fill="#1b2745" />
  <rect x="336" y="296" width="208" height="72" rx="16" fill="#1b2745" />
  <rect x="120" y="144" width="152" height="48" rx="12" fill="#23335a" />
  <rect x="120" y="216" width="152" height="48" rx="12" fill="#23335a" />
  <rect x="120" y="288" width="152" height="48" rx="12" fill="#23335a" />
  <rect x="360" y="144" width="160" height="32" rx="12" fill="#23335a" />
  <rect x="360" y="192" width="160" height="32" rx="12" fill="#23335a" />
  <rect x="360" y="240" width="160" height="32" rx="12" fill="#23335a" />
  <rect x="360" y="320" width="160" height="24" rx="12" fill="#23335a" />
  <rect x="360" y="352" width="112" height="16" rx="8" fill="#23335a" />
  <circle cx="440" cy="320" r="42" fill="url(#grad)" opacity="0.8" />
  <circle cx="440" cy="320" r="18" fill="#0f172a" />
  <circle cx="200" cy="176" r="16" fill="url(#grad)" opacity="0.8" />
  <circle cx="200" cy="248" r="16" fill="url(#grad)" opacity="0.8" />
  <circle cx="200" cy="320" r="16" fill="url(#grad)" opacity="0.8" />
  <path d="M440 320L200 176" stroke="url(#gradSoft)" stroke-width="4" stroke-linecap="round" />
  <path d="M440 320L200 248" stroke="url(#gradSoft)" stroke-width="4" stroke-linecap="round" />
  <path d="M440 320L200 320" stroke="url(#gradSoft)" stroke-width="4" stroke-linecap="round" />
  <circle cx="320" cy="56" r="16" fill="url(#grad)" />
  <circle cx="72" cy="400" r="12" fill="#5f4bff" opacity="0.6" />
  <circle cx="568" cy="96" r="10" fill="#1d9bf0" opacity="0.5" />
  <circle cx="560" cy="400" r="14" fill="#5f4bff" opacity="0.4" />
</svg>
