<svg width="640" height="420" viewBox="0 0 640 420" fill="none" xmlns="http://www.w3.org/2000/svg">
  <rect width="640" height="420" rx="32" fill="url(#paint0_linear)"/>
  <rect x="36" y="32" width="568" height="356" rx="24" fill="rgba(15,23,42,0.82)" stroke="rgba(148,163,184,0.25)" stroke-width="2"/>
  <rect x="60" y="56" width="80" height="12" rx="6" fill="#38BDF8" opacity="0.7"/>
  <rect x="60" y="84" width="120" height="8" rx="4" fill="#94A3B8" opacity="0.6"/>
  <rect x="60" y="104" width="96" height="8" rx="4" fill="#94A3B8" opacity="0.4"/>
  <rect x="60" y="128" width="520" height="2" fill="rgba(148,163,184,0.2)"/>
  <rect x="60" y="148" width="240" height="190" rx="18" fill="rgba(30,58,138,0.45)" stroke="rgba(96,165,250,0.35)"/>
  <rect x="324" y="148" width="256" height="82" rx="16" fill="rgba(14,165,233,0.14)" stroke="rgba(96,165,250,0.25)"/>
  <rect x="324" y="244" width="256" height="94" rx="16" fill="rgba(30,41,59,0.65)" stroke="rgba(148,163,184,0.25)"/>
  <path d="M92 311L140 214L188 246L236 188L276 230" stroke="#38BDF8" stroke-width="8" stroke-linecap="round" stroke-linejoin="round" opacity="0.9"/>
  <path d="M324 198H540" stroke="rgba(148,163,184,0.4)" stroke-width="2" stroke-linecap="round"/>
  <rect x="324" y="176" width="120" height="12" rx="6" fill="#A78BFA" opacity="0.85"/>
  <rect x="456" y="176" width="80" height="12" rx="6" fill="#38BDF8" opacity="0.75"/>
  <rect x="340" y="264" width="48" height="48" rx="14" fill="rgba(37,99,235,0.4)"/>
  <rect x="404" y="264" width="48" height="48" rx="14" fill="rgba(248,113,113,0.25)"/>
  <rect x="468" y="264" width="48" height="48" rx="14" fill="rgba(34,197,94,0.3)"/>
  <rect x="532" y="264" width="48" height="48" rx="14" fill="rgba(56,189,248,0.3)"/>
  <path d="M348 294H376" stroke="#E2E8F0" stroke-width="4" stroke-linecap="round" opacity="0.85"/>
  <path d="M412 294H440" stroke="#E2E8F0" stroke-width="4" stroke-linecap="round" opacity="0.65"/>
  <path d="M476 294H504" stroke="#E2E8F0" stroke-width="4" stroke-linecap="round" opacity="0.65"/>
  <path d="M540 294H568" stroke="#E2E8F0" stroke-width="4" stroke-linecap="round" opacity="0.65"/>
  <circle cx="132" cy="212" r="12" fill="#F97316" opacity="0.9"/>
  <circle cx="188" cy="244" r="12" fill="#38BDF8" opacity="0.9"/>
  <circle cx="236" cy="184" r="12" fill="#34D399" opacity="0.9"/>
  <defs>
    <linearGradient id="paint0_linear" x1="64" y1="12" x2="612" y2="404" gradientUnits="userSpaceOnUse">
      <stop stop-color="#0B1120"/>
      <stop offset="0.45" stop-color="#111C44"/>
      <stop offset="1" stop-color="#020617"/>
    </linearGradient>
  </defs>
</svg>
